Coordinates
version=1
nRows=29
nColumns=24
inDegrees=yes

Units are S.I. units (second, meters, Newtons, ...)
Angles are in degrees.

endheader
time	pelvis_tilt	pelvis_list	pelvis_rotation	pelvis_tx	pelvis_ty	pelvis_tz	hip_flexion_r	hip_adduction_r	hip_rotation_r	knee_angle_r	ankle_angle_r	subtalar_angle_r	mtp_angle_r	hip_flexion_l	hip_adduction_l	hip_rotation_l	knee_angle_l	ankle_angle_l	subtalar_angle_l	mtp_angle_l	lumbar_extension	lumbar_bending	lumbar_rotation
      5.20000000	      0.23885938	      0.18713976	     -0.96980878	     -1.36033480	      0.70618095	      0.25157843	     21.03786350	      0.45759176	      1.96103446	    -60.32947458	     12.38027380	      3.55067327	      0.00000000	     -3.92192731	      8.42033731	     26.49876425	      0.49531220	     -2.33658058	    -34.49118304	      0.00000000	    -15.48989520	     -1.89161022	      1.43308735
      5.21000000	      0.19384022	     -0.16541924	      0.05992005	     -1.34929410	      0.70640682	      0.25014012	     22.24394695	      1.04999502	      1.69992822	    -58.11975507	     12.77451211	     -0.47296101	      0.00000000	     -5.15203121	      7.90731458	     27.42311378	      0.98785310	     -1.94713956	    -34.40924976	      0.00000000	    -15.87076240	     -1.38620416	      0.67714300
      5.22000000	      0.36136880	     -0.42901599	      1.05717132	     -1.33832470	      0.70664978	      0.24874169	     23.05297299	      1.53512965	      1.55165190	    -55.50471561	     12.82554228	     -4.42009399	      0.00000000	     -6.53902623	      7.49464704	     28.17027767	      1.38245696	     -1.50540176	    -34.32157237	      0.00000000	    -16.53849107	     -1.00638532	     -0.04367764
      5.23000000	      0.20849869	     -0.57101566	      1.88395316	     -1.32730052	      0.70629263	      0.24751499	     24.07080093	      1.93927548	      1.69438058	    -52.56990159	     12.57947537	     -8.10974775	      0.00000000	     -7.48560078	      7.26089126	     28.64683531	      1.60766414	     -0.99455063	    -34.16862469	      0.00000000	    -16.73977176	     -0.79896118	     -0.57307726
      5.24000000	      0.33895615	     -0.73842650	      2.75597508	     -1.31613692	      0.70622412	      0.24630040	     24.46757438	      2.36176950	      1.92702964	    -49.09870457	     12.14773211	    -11.30432101	      0.00000000	     -8.68872435	      6.97375141	     29.13226323	      1.71122295	     -0.34825528	    -33.82199780	      0.00000000	    -17.26446247	     -0.56667722	     -1.22330078
      5.25000000	      0.42903619	     -0.76172617	      3.52255689	     -1.30497466	      0.70589260	      0.24511277	     24.74341982	      2.59692029	      2.19685982	    -45.33230187	     11.64441015	    -14.00354730	      0.00000000	     -9.76697472	      6.89318265	     29.42940619	      1.64551656	      0.31822812	    -33.46128377	      0.00000000	    -17.74176793	     -0.49256552	     -1.81057192
      5.26000000	      0.50790081	     -0.71481764	      4.26170695	     -1.29360916	      0.70543269	      0.24392628	     24.79263180	      2.70784281	      2.39392776	    -41.21169921	     11.10519509	    -16.09557083	      0.00000000	    -10.79169253	      6.90378362	     29.65408595	      1.44279760	      1.03528239	    -33.00858883	      0.00000000	    -18.13652220	     -0.51060253	     -2.40688445
      5.27000000	      0.62537326	     -0.60349426	      4.96650542	     -1.28208145	      0.70488328	      0.24271772	     24.58855669	      2.70121631	      2.42107181	    -36.80369101	     10.62607789	    -17.51461392	      0.00000000	    -11.82784717	      6.99434028	     29.76160079	      1.13040564	      1.83712805	    -32.39485573	      0.00000000	    -18.54289538	     -0.58221010	     -3.02378279
      5.28000000	      0.73938644	     -0.40834183	      5.64638750	     -1.27037638	      0.70420751	      0.24147369	     24.20934217	      2.55650783	      2.15483296	    -32.19613556	     10.25610843	    -18.22867328	      0.00000000	    -12.84114103	      7.18017504	     29.75373089	      0.71789776	      2.69948212	    -31.57953882	      0.00000000	    -18.91072184	     -0.73823078	     -3.66858307
      5.29000000	      0.76621196	     -0.13955106	      6.32351512	     -1.25846040	      0.70331892	      0.24018201	     23.78618855	      2.29133237	      1.47755672	    -27.50287401	     10.06191372	    -18.16734094	      0.00000000	    -13.75976321	      7.43522543	     29.74002616	      0.23547017	      3.52775854	    -30.67352389	      0.00000000	    -19.13381788	     -0.96967542	     -4.36617722
      5.30000000	      0.72218033	      0.14532924	      6.98815966	     -1.24623305	      0.70226852	      0.23888706	     23.32271711	      2.01667490	      0.38998346	    -22.81890962	     10.02891166	    -17.30925058	      0.00000000	    -14.64537177	      7.66107031	     29.80635031	     -0.22959857	      4.25036951	    -29.73845896	      0.00000000	    -19.20433788	     -1.21434115	     -5.05779740
      5.31000000	      0.74894351	      0.43191844	      7.55587661	     -1.23363263	      0.70118813	      0.23771951	     22.71257014	      1.84253668	     -1.02812811	    -18.27231691	     10.22618580	    -15.70697978	      0.00000000	    -15.66210902	      7.84122066	     29.73712969	     -0.65311610	      5.03469091	    -28.56652489	      0.00000000	    -19.29325043	     -1.46932154	     -5.64331676
      5.32000000	      0.77885769	      0.72719914	      8.03220025	     -1.22067483	      0.70002179	      0.23671429	     22.06507756	      1.79128726	     -2.54466090	    -14.00901294	     10.53655760	    -13.58775407	      0.00000000	    -16.72880844	      7.98304383	     29.57289547	     -1.04033274	      5.82215959	    -27.18398048	      0.00000000	    -19.33692449	     -1.75763717	     -6.09433163
      5.33000000	      0.82524135	      1.06400055	      8.34003293	     -1.20745378	      0.69877832	      0.23584533	     21.40211302	      1.84442913	     -3.74968440	    -10.17756527	     10.95229940	    -11.15848821	      0.00000000	    -17.78798573	      8.19785153	     29.07585169	     -1.52585302	      6.72175478	    -25.40889681	      0.00000000	    -19.38107348	     -2.10003113	     -6.40360681
      5.34000000	      0.77366879	      1.34134305	      8.64980753	     -1.19382610	      0.69738653	      0.23494268	     20.79936961	      2.01485898	     -4.54154183	     -6.76341401	     11.05700285	     -9.27784735	      0.00000000	    -18.77517266	      8.29403925	     28.71390439	     -1.97573980	      7.51359391	    -23.56597233	      0.00000000	    -19.21476215	     -2.37910090	     -6.60552753
      5.35000000	      0.75593408	      1.74600371	      8.66874988	     -1.18008987	      0.69601029	      0.23427190	     20.24850579	      2.15117368	     -4.48955828	     -4.05277558	     11.08761826	     -7.85549080	      0.00000000	    -19.67635694	      8.64141144	     27.57917748	     -2.68085294	      8.45341385	    -20.86109727	      0.00000000	    -19.13769881	     -2.85859768	     -6.63227404
      5.36000000	      0.59195788	      2.11696461	      8.76921965	     -1.16618090	      0.69453730	      0.23320952	     19.85508135	      2.20986308	     -3.81727294	     -1.94125507	     10.74867876	     -7.58503176	      0.00000000	    -20.23324560	      9.01028196	     26.28259795	     -3.74265949	      9.47500813	    -17.72913299	      0.00000000	    -18.84821358	     -3.21437777	     -6.66524486
      5.37000000	      0.45172931	      2.42289612	      8.74614790	     -1.15211469	      0.69318270	      0.23202427	     19.55762483	      2.29515269	     -2.75684437	     -0.63585493	     10.29568299	     -7.98938797	      0.00000000	    -20.55533406	      9.40678098	     24.35613301	     -5.22831969	     10.55564016	    -13.96481546	      0.00000000	    -18.55776522	     -3.45209661	     -6.49676121
      5.38000000	      0.31258212	      2.68833889	      8.80212054	     -1.13813143	      0.69210873	      0.23060747	     19.40564512	      2.32319100	     -1.61726018	     -0.18850429	      9.73828336	     -9.00792189	      0.00000000	    -20.43597859	      9.78748878	     21.70906984	     -7.40990299	     11.71006784	     -9.21941496	      0.00000000	    -18.31952729	     -3.57279274	     -6.36458680
      5.39000000	      0.14458491	      2.82442830	      8.87743208	     -1.12429901	      0.69127595	      0.22916119	     19.49411745	      2.42934269	     -0.55087491	     -0.64154942	      9.14298079	    -10.31172862	      0.00000000	    -19.71246351	     10.01744784	     18.19514852	    -10.41794671	     12.81934288	     -3.67311064	      0.00000000	    -18.08746822	     -3.52351783	     -6.17557952
      5.40000000	     -0.02205231	      2.76861218	      9.01074208	     -1.11065004	      0.69073527	      0.22778081	     19.79657696	      2.69950338	      0.23774994	     -1.92645646	      8.55305190	    -11.63079500	      0.00000000	    -18.41987766	      9.89662444	     14.23909622	    -14.18045160	     13.44541835	      2.03629686	      0.00000000	    -17.88310741	     -3.24896986	     -5.97846655
      5.41000000	     -0.17041769	      2.47305725	      9.14259838	     -1.09715883	      0.69044900	      0.22655042	     20.28277884	      3.21205984	      0.72471442	     -3.91029166	      7.96311127	    -12.79182161	      0.00000000	    -16.65705798	      9.33516453	     10.36875147	    -18.52855903	     13.22986691	      7.15380983	      0.00000000	    -17.69759714	     -2.71828284	     -5.67454496
      5.42000000	     -0.58753476	      2.03947253	      9.23817588	     -1.08388415	      0.69001720	      0.22545390	     21.21206702	      3.81453998	      1.23512917	     -6.42770295	      7.38582893	    -13.81965970	      0.00000000	    -14.16347758	      8.53356581	      6.98952647	    -23.39571915	     11.96606453	     11.17305999	      0.00000000	    -17.16679733	     -2.11262886	     -5.31054016
      5.43000000	     -0.23057180	      1.36995979	      9.38062908	     -1.07071412	      0.69060305	      0.22437198	     21.32867517	      4.72824248	      1.06609035	     -9.09385947	      7.12571713	    -14.09436339	      0.00000000	    -12.24166252	      7.19453381	      4.36545637	    -28.41813431	      9.83427941	     14.37765640	      0.00000000	    -17.58930190	     -1.10381575	     -4.84351586
      5.44000000	     -0.74413480	      0.63607618	      9.45628420	     -1.05784183	      0.69019779	      0.22334753	     22.49346086	      5.55050560	      0.85799755	    -12.00132217	      6.81924369	    -14.21994817	      0.00000000	     -8.99515388	      5.92794976	      2.33092503	    -33.80705126	      6.85612110	     16.40284861	      0.00000000	    -16.90508028	     -0.22537512	     -4.33053684
      5.45000000	     -0.77712181	     -0.19498236	      9.64962569	     -1.04504840	      0.69030104	      0.22221332	     22.93449116	      6.46419422	      0.45414774	    -14.53349550	      6.87008853	    -14.00755708	      0.00000000	     -6.08367125	      4.41308952	      0.93094717	    -39.15645055	      3.38360228	     17.70159198	      0.00000000	    -16.78448226	      0.84929393	     -3.94248185
      5.46000000	     -0.87558089	     -1.12041502	      9.90646701	     -1.03243175	      0.69023283	      0.22096212	     23.24585411	      7.42270020	      0.09406025	    -16.62903883	      6.97587351	    -13.92657913	      0.00000000	     -2.91178981	      2.85976368	      0.06856790	    -44.42514366	     -0.29054555	     17.94882036	      0.00000000	    -16.54839842	      2.02323602	     -3.58064782
      5.47000000	     -0.95315297	     -2.01455930	     10.21170362	     -1.01994154	      0.69011523	      0.21979561	     23.25195017	      8.36350285	     -0.15451674	    -18.15604369	      7.31352480	    -14.04387431	      0.00000000	      0.33323572	      1.38423224	     -0.41178526	    -49.43470868	     -3.83309249	     17.27077593	      0.00000000	    -16.32496516	      3.08169973	     -3.26640555
      5.48000000	     -0.97695559	     -2.94944938	     10.46865519	     -1.00747448	      0.69002745	      0.21879342	     22.91415762	      9.40334799	     -0.33174027	    -19.09030574	      7.79357893	    -14.27381155	      0.00000000	      3.54046569	     -0.07164094	     -0.62737811	    -54.07518026	     -6.69694246	     15.98615016	      0.00000000	    -16.12257092	      4.12574560	     -2.86910104
